<svg xmlns="http://www.w3.org/2000/svg" xmlns:xlink="http://www.w3.org/1999/xlink"
    width="32" height="32" viewBox="16 12 32 32">
    <defs xmlns="http://www.w3.org/2000/svg">
        <style xmlns="http://www.w3.org/2000/svg">.ys-logo{fill:#409eff;}</style>
    </defs>
    <g>
        <path
            class="ys-logo"
            d="M42.6517 14.7095C43.3093 15.5207 43.1709 16.7004 42.3427 17.3444L35.4903 22.673C34.6533 23.3238 34.4806 24.5013 35.0963 25.3567L38.742 30.42C39.7676 31.8446 39.479 33.809 38.0849 34.8924L29.4615 41.5937C29.1096 41.8671 28.6896 42 28.2727 42C27.7083 42 27.1494 41.7567 26.7714 41.2901C26.1142 40.4786 26.2529 39.2989 27.0814 38.6552L33.8636 33.3847C34.701 32.734 34.874 31.5562 34.258 30.7007L30.6128 25.6378C29.5875 24.2138 29.8758 22.2496 31.2691 21.1662L39.9616 14.4067C40.7899 13.7626 41.9943 13.8982 42.6517 14.7095ZM27.5182 14.8027L29.8674 17.5747C30.4761 18.4224 30.2592 19.5869 29.3831 20.1758C29.0472 20.4016 28.6629 20.51 28.2827 20.51C27.6712 20.51 27.0699 20.2299 26.6946 19.7073L24.3455 16.9353C23.7368 16.0877 23.9535 14.9231 24.8297 14.3342C25.7058 13.7453 26.9095 13.9551 27.5182 14.8027Z"
        />
    </g>

</svg>